<?xml version="1.0" encoding="UTF-8" standalone="no"?><svg xmlns="http://www.w3.org/2000/svg" xmlns:xlink="http://www.w3.org/1999/xlink" contentScriptType="application/ecmascript" contentStyleType="text/css" height="764px" preserveAspectRatio="none" style="width:968px;height:764px;" version="1.1" viewBox="0 0 968 764" width="968px" zoomAndPan="magnify"><defs><filter height="300%" id="fkalmteu2o0re" width="300%" x="-1" y="-1"><feGaussianBlur result="blurOut" stdDeviation="2.0"/><feColorMatrix in="blurOut" result="blurOut2" type="matrix" values="0 0 0 0 0 0 0 0 0 0 0 0 0 0 0 0 0 0 .4 0"/><feOffset dx="4.0" dy="4.0" in="blurOut2" result="blurOut3"/><feBlend in="SourceGraphic" in2="blurOut3" mode="normal"/></filter></defs><g><!--class Account--><polygon fill="#FEFECE" filter="url(#fkalmteu2o0re)" points="480.5,8,480.5,8.2102,490.4286,7.5857,500.3571,8.1933,510.2857,8.3997,520.2143,7.2866,530.1429,7.9223,540.0714,7.5735,550,7.6165,559.9286,7.9318,569.8571,7.3086,579.7857,8.5536,589.7143,7.3697,599.6429,7.8022,609.5714,8.4319,619.5,8,619.4142,8,619.5682,18.223,619.4681,28.446,619.6785,38.669,619.7391,48.892,620.0857,59.1151,620.1711,69.3381,620.1793,79.5611,619.7546,89.7841,619.9636,100.0071,620.2022,110.2301,619.5,120.4531,619.5,119.7319,609.5714,121.1316,599.6429,120.1566,589.7143,120.9869,579.7857,119.9581,569.8571,120.3846,559.9286,121.1947,550,120.4044,540.0714,120.5584,530.1429,120.7918,520.2143,120.8694,510.2857,120.4492,500.3571,120.7403,490.4286,119.8807,480.5,120.4531,480.7844,120.4531,481.0482,110.2301,480.9445,100.0071,481.113,89.7841,480.0169,79.5611,479.8478,69.3381,479.8786,59.1151,480.4411,48.892,480.3035,38.669,481.1814,28.446,480.3253,18.223,480.5,8" style="stroke: #A80036; stroke-width: 1.5;"/><polygon fill="#AAAAEE" points="533.1108,26.6756,531.4984,28.8788,529.5912,32.1057,526.8636,34.2804,523.9974,35.4696,521.712,35.5728,518.7747,34.0855,516.0032,33.1139,513.8995,31.1412,512.7961,28.8828,512.1417,27.0845,511.5006,24.7357,510.46,22.7145,511.2596,20.741,511.9602,18.5792,514.5893,16.8695,516.439,14.6511,518.7284,13.9144,521.4501,13.2801,524.9404,13.657,526.8521,14.5585,529.0747,14.9672,531.7772,17.736,532.7193,20.659,533.1286,22.6534,532.665,25.9399" style="stroke: #A80036; stroke-width: 1.0;"/><path d="M520.3781,30.75 L522.8938,30.75 L522.8938,20.8594 L526.2219,20.8594 L526.2219,18.75 L517.0656,18.75 L517.0656,20.8594 L520.3781,20.8594 L520.3781,30.75 Z "/><text fill="#000000" font-family="sans-serif" font-size="12" lengthAdjust="spacingAndGlyphs" textLength="48" x="541.95" y="28.1016">Account</text><path d="M481.5,40 L481.5,40.2802 L491.2857,39.4476 L501.0714,40.2577 L510.8571,40.5329 L520.6429,39.0488 L530.4286,39.8964 L540.2143,39.4313 L550,39.4887 L559.7857,39.9091 L569.5714,39.0782 L579.3571,40.7382 L589.1429,39.1596 L598.9286,39.7363 L608.7143,40.5759 L618.5,40 " fill="#FEFECE" style="stroke: #A80036; stroke-width: 1.5;"/><text fill="#000000" font-family="sans-serif" font-size="11" lengthAdjust="spacingAndGlyphs" textLength="64" x="486.5" y="54.2051">id: INT &lt;PK&gt;</text><text fill="#000000" font-family="sans-serif" font-size="11" lengthAdjust="spacingAndGlyphs" textLength="112" x="486.5" y="67.0957">username: VARCHAR</text><text fill="#000000" font-family="sans-serif" font-size="11" lengthAdjust="spacingAndGlyphs" textLength="108" x="486.5" y="79.9863">password: VARCHAR</text><text fill="#000000" font-family="sans-serif" font-size="11" lengthAdjust="spacingAndGlyphs" textLength="124" x="486.5" y="92.877">createdat: TIMESTAMP</text><text fill="#000000" font-family="sans-serif" font-size="11" lengthAdjust="spacingAndGlyphs" textLength="127" x="486.5" y="105.7676">updatedat: TIMESTAMP</text><path d="M481.5,112.4531 L481.5,112.7334 L491.2857,111.9007 L501.0714,112.7108 L510.8571,112.986 L520.6429,111.5019 L530.4286,112.3495 L540.2143,111.8845 L550,111.9418 L559.7857,112.3622 L569.5714,111.5313 L579.3571,113.1913 L589.1429,111.6128 L598.9286,112.1894 L608.7143,113.0291 L618.5,112.4531 " fill="#FEFECE" style="stroke: #A80036; stroke-width: 1.5;"/><!--class Applicant--><polygon fill="#FEFECE" filter="url(#fkalmteu2o0re)" points="478,180,478,180.2102,488.2857,179.5857,498.5714,180.1933,508.8571,180.3997,519.1429,179.2866,529.4286,179.9223,539.7143,179.5735,550,179.6165,560.2857,179.9318,570.5714,179.3086,580.8571,180.5536,591.1429,179.3697,601.4286,179.8022,611.7143,180.4319,622,180,621.9142,180,622.0682,189.799,621.9681,199.598,622.1785,209.397,622.2391,219.196,622.5857,228.995,622.6711,238.794,622.6793,248.593,622.2546,258.392,622.4636,268.1911,622.7022,277.9901,621.2788,287.7891,622.6785,297.5881,621.7035,307.3871,622.5338,317.1861,621.505,326.9851,621.9315,336.7841,622.7416,346.5831,621.9513,356.3821,622.1053,366.1811,622.3386,375.9801,622.4162,385.7791,622,395.5781,622,395.5742,611.7143,395.8653,601.4286,395.0057,591.1429,395.8625,580.8571,396.1263,570.5714,396.0227,560.2857,396.1911,550,395.095,539.7143,394.9259,529.4286,394.9567,519.1429,395.5192,508.8571,395.3816,498.5714,396.2595,488.2857,395.4034,478,395.5781,477.6569,395.5781,478.2283,385.7791,477.3332,375.9801,477.4809,366.1811,478.649,356.3821,478.4357,346.5831,478.7345,336.7841,477.6782,326.9851,478.3192,317.1861,478.5904,307.3871,477.5276,297.5881,477.9041,287.7891,478.126,277.9901,478.6518,268.1911,477.9958,258.392,478.4626,248.593,477.4462,238.794,477.3227,228.995,478.5036,219.196,477.2831,209.397,478.509,199.598,478.2066,189.799,478,180" style="stroke: #A80036; stroke-width: 1.5;"/><polygon fill="#AAAAEE" points="530.6108,198.6756,528.9984,200.8788,527.0912,204.1057,524.3636,206.2804,521.4974,207.4696,519.212,207.5728,516.2747,206.0855,513.5032,205.1139,511.3995,203.1412,510.2961,200.8828,509.6417,199.0845,509.0006,196.7357,507.96,194.7145,508.7596,192.741,509.4602,190.5792,512.0893,188.8695,513.939,186.6511,516.2284,185.9144,518.9501,185.2801,522.4404,185.657,524.3521,186.5585,526.5747,186.9672,529.2772,189.736,530.2193,192.659,530.6286,194.6534,530.165,197.9399" style="stroke: #A80036; stroke-width: 1.0;"/><path d="M517.8781,202.75 L520.3938,202.75 L520.3938,192.8594 L523.7219,192.8594 L523.7219,190.75 L514.5656,190.75 L514.5656,192.8594 L517.8781,192.8594 L517.8781,202.75 Z "/><text fill="#000000" font-family="sans-serif" font-size="12" lengthAdjust="spacingAndGlyphs" textLength="53" x="539.45" y="200.1016">Applicant</text><path d="M479,212 L479,212.2802 L489.1429,211.4476 L499.2857,212.2577 L509.4286,212.5329 L519.5714,211.0488 L529.7143,211.8964 L539.8571,211.4313 L550,211.4887 L560.1429,211.9091 L570.2857,211.0782 L580.4286,212.7382 L590.5714,211.1596 L600.7143,211.7363 L610.8571,212.5759 L621,212 " fill="#FEFECE" style="stroke: #A80036; stroke-width: 1.5;"/><text fill="#000000" font-family="sans-serif" font-size="11" lengthAdjust="spacingAndGlyphs" textLength="92" x="484" y="226.2051">id: INT &lt;PK&gt; &lt;FK&gt;</text><text fill="#000000" font-family="sans-serif" font-size="11" lengthAdjust="spacingAndGlyphs" textLength="112" x="484" y="239.0957">account_id: INT &lt;FK&gt;</text><text fill="#000000" font-family="sans-serif" font-size="11" lengthAdjust="spacingAndGlyphs" textLength="108" x="484" y="251.9863">firstname: VARCHAR</text><text fill="#000000" font-family="sans-serif" font-size="11" lengthAdjust="spacingAndGlyphs" textLength="107" x="484" y="264.877">lastname: VARCHAR</text><text fill="#000000" font-family="sans-serif" font-size="11" lengthAdjust="spacingAndGlyphs" textLength="86" x="484" y="277.7676">street: VARCHAR</text><text fill="#000000" font-family="sans-serif" font-size="11" lengthAdjust="spacingAndGlyphs" textLength="107" x="484" y="290.6582">postcode: VARCHAR</text><text fill="#000000" font-family="sans-serif" font-size="11" lengthAdjust="spacingAndGlyphs" textLength="74" x="484" y="303.5488">city: VARCHAR</text><text fill="#000000" font-family="sans-serif" font-size="11" lengthAdjust="spacingAndGlyphs" textLength="91" x="484" y="316.4395">phone: VARCHAR</text><text fill="#000000" font-family="sans-serif" font-size="11" lengthAdjust="spacingAndGlyphs" textLength="87" x="484" y="329.3301">email: VARCHAR</text><text fill="#000000" font-family="sans-serif" font-size="11" lengthAdjust="spacingAndGlyphs" textLength="77" x="484" y="342.2207">birthday: DATE</text><text fill="#000000" font-family="sans-serif" font-size="11" lengthAdjust="spacingAndGlyphs" textLength="111" x="484" y="355.1113">birthplace: VARCHAR</text><text fill="#000000" font-family="sans-serif" font-size="11" lengthAdjust="spacingAndGlyphs" textLength="132" x="484" y="368.002">drivinglicense: VARCHAR</text><text fill="#000000" font-family="sans-serif" font-size="11" lengthAdjust="spacingAndGlyphs" textLength="127" x="484" y="380.8926">updatedat: TIMESTAMP</text><path d="M479,387.5781 L479,387.8584 L489.1429,387.0257 L499.2857,387.8358 L509.4286,388.111 L519.5714,386.6269 L529.7143,387.4745 L539.8571,387.0095 L550,387.0668 L560.1429,387.4872 L570.2857,386.6563 L580.4286,388.3163 L590.5714,386.7378 L600.7143,387.3144 L610.8571,388.1541 L621,387.5781 " fill="#FEFECE" style="stroke: #A80036; stroke-width: 1.5;"/><!--class Knowledge--><polygon fill="#FEFECE" filter="url(#fkalmteu2o0re)" points="6,475,6,475.2102,16,474.5857,26,475.1933,36,475.3997,46,474.2866,56,474.9223,66,474.5735,76,474.6165,86,474.9318,96,474.3086,106,475.5536,116,474.3697,126,474.8022,136,475.4319,146,474.9142,156,475.0682,166,474.9681,176,475.1785,186,475.2391,196,475,196.5857,475,196.6711,484.9563,196.6793,494.9125,196.2546,504.8688,196.4636,514.825,196.7022,524.7813,195.2788,534.7375,196.6785,544.6938,195.7035,554.65,196.5338,564.6063,196,574.5625,196,574.0675,186,574.494,176,575.3041,166,574.5138,156,574.6678,146,574.9011,136,574.9787,126,574.5586,116,574.8497,106,573.9901,96,574.8469,86,575.1107,76,575.007,66,575.1755,56,574.0794,46,573.9103,36,573.9411,26,574.5036,16,574.366,6,574.5625,6.6814,574.5625,5.8253,564.6063,5.6569,554.65,6.2283,544.6938,5.3332,534.7375,5.4809,524.7813,6.649,514.825,6.4357,504.8688,6.7345,494.9125,5.6782,484.9563,6,475" style="stroke: #A80036; stroke-width: 1.5;"/><polygon fill="#AAAAEE" points="76.8108,493.6756,75.1984,495.8788,73.2912,499.1057,70.5636,501.2804,67.6974,502.4696,65.412,502.5728,62.4747,501.0855,59.7032,500.1139,57.5995,498.1412,56.4961,495.8828,55.8417,494.0845,55.2006,491.7357,54.16,489.7145,54.9596,487.741,55.6602,485.5792,58.2893,483.8695,60.139,481.6511,62.4284,480.9144,65.1501,480.2801,68.6404,480.657,70.5521,481.5585,72.7747,481.9672,75.4772,484.736,76.4193,487.659,76.8286,489.6534,76.365,492.9399" style="stroke: #A80036; stroke-width: 1.0;"/><path d="M64.0781,497.75 L66.5938,497.75 L66.5938,487.8594 L69.9219,487.8594 L69.9219,485.75 L60.7656,485.75 L60.7656,487.8594 L64.0781,487.8594 L64.0781,497.75 Z "/><text fill="#000000" font-family="sans-serif" font-size="12" lengthAdjust="spacingAndGlyphs" textLength="62" x="86.25" y="495.1016">Knowledge</text><path d="M7,507 L7,507.2802 L16.8947,506.4476 L26.7895,507.2577 L36.6842,507.5329 L46.5789,506.0488 L56.4737,506.8964 L66.3684,506.4313 L76.2632,506.4887 L86.1579,506.9091 L96.0526,506.0782 L105.9474,507.7382 L115.8421,506.1596 L125.7368,506.7363 L135.6316,507.5759 L145.5263,506.8856 L155.4211,507.091 L165.3158,506.9574 L175.2105,507.238 L185.1053,507.3188 L195,507 " fill="#FEFECE" style="stroke: #A80036; stroke-width: 1.5;"/><text fill="#000000" font-family="sans-serif" font-size="11" lengthAdjust="spacingAndGlyphs" textLength="92" x="12" y="521.2051">id: INT &lt;PK&gt; &lt;FK&gt;</text><text fill="#000000" font-family="sans-serif" font-size="11" lengthAdjust="spacingAndGlyphs" textLength="178" x="12" y="534.0957">knowledge_category_id: INT &lt;FK&gt;</text><text fill="#000000" font-family="sans-serif" font-size="11" lengthAdjust="spacingAndGlyphs" textLength="88" x="12" y="546.9863">name: VARCHAR</text><text fill="#000000" font-family="sans-serif" font-size="11" lengthAdjust="spacingAndGlyphs" textLength="79" x="12" y="559.877">sequence: INT</text><path d="M7,566.5625 L7,566.8427 L16.8947,566.0101 L26.7895,566.8202 L36.6842,567.0954 L46.5789,565.6113 L56.4737,566.4589 L66.3684,565.9938 L76.2632,566.0512 L86.1579,566.4716 L96.0526,565.6407 L105.9474,567.3007 L115.8421,565.7221 L125.7368,566.2988 L135.6316,567.1384 L145.5263,566.4481 L155.4211,566.6535 L165.3158,566.5199 L175.2105,566.8005 L185.1053,566.8813 L195,566.5625 " fill="#FEFECE" style="stroke: #A80036; stroke-width: 1.5;"/><!--class KnowledgeCategory--><polygon fill="#FEFECE" filter="url(#fkalmteu2o0re)" points="28.5,654,28.5,654.2102,38.1667,653.5857,47.8333,654.1933,57.5,654.3997,67.1667,653.2866,76.8333,653.9223,86.5,653.5735,96.1667,653.6165,105.8333,653.9318,115.5,653.3086,125.1667,654.5536,134.8333,653.3697,144.5,653.8022,154.1667,654.4319,163.8333,653.9142,173.5,654,173.5682,654,173.4681,663.9563,173.6785,673.9125,173.7391,683.8688,174.0857,693.825,174.1711,703.7813,174.1793,713.7375,173.7546,723.6938,173.9636,733.65,174.2022,743.6063,173.5,753.5625,173.5,752.8413,163.8333,754.241,154.1667,753.266,144.5,754.0963,134.8333,753.0675,125.1667,753.494,115.5,754.3041,105.8333,753.5138,96.1667,753.6678,86.5,753.9011,76.8333,753.9787,67.1667,753.5586,57.5,753.8497,47.8333,752.9901,38.1667,753.8469,28.5,753.5625,29.0482,753.5625,28.9445,743.6063,29.113,733.65,28.0169,723.6938,27.8478,713.7375,27.8786,703.7813,28.4411,693.825,28.3035,683.8688,29.1814,673.9125,28.3253,663.9563,28.5,654" style="stroke: #A80036; stroke-width: 1.5;"/><polygon fill="#AAAAEE" points="54.5608,672.6756,52.9484,674.8788,51.0412,678.1057,48.3136,680.2804,45.4474,681.4696,43.162,681.5728,40.2247,680.0855,37.4532,679.1139,35.3495,677.1412,34.2461,674.8828,33.5917,673.0845,32.9506,670.7357,31.91,668.7145,32.7096,666.741,33.4102,664.5792,36.0393,662.8695,37.889,660.6511,40.1784,659.9144,42.9001,659.2801,46.3904,659.657,48.3021,660.5585,50.5247,660.9672,53.2272,663.736,54.1693,666.659,54.5786,668.6534,54.115,671.9399" style="stroke: #A80036; stroke-width: 1.0;"/><path d="M41.8281,676.75 L44.3438,676.75 L44.3438,666.8594 L47.6719,666.8594 L47.6719,664.75 L38.5156,664.75 L38.5156,666.8594 L41.8281,666.8594 L41.8281,676.75 Z "/><text fill="#000000" font-family="sans-serif" font-size="12" lengthAdjust="spacingAndGlyphs" textLength="113" x="57.5" y="674.1016">KnowledgeCategory</text><path d="M29.5,686 L29.5,686.2802 L39.7143,685.4476 L49.9286,686.2577 L60.1429,686.5329 L70.3571,685.0488 L80.5714,685.8964 L90.7857,685.4313 L101,685.4887 L111.2143,685.9091 L121.4286,685.0782 L131.6429,686.7382 L141.8571,685.1596 L152.0714,685.7363 L162.2857,686.5759 L172.5,686 " fill="#FEFECE" style="stroke: #A80036; stroke-width: 1.5;"/><text fill="#000000" font-family="sans-serif" font-size="11" lengthAdjust="spacingAndGlyphs" textLength="92" x="34.5" y="700.2051">id: INT &lt;PK&gt; &lt;FK&gt;</text><text fill="#000000" font-family="sans-serif" font-size="11" lengthAdjust="spacingAndGlyphs" textLength="118" x="34.5" y="713.0957">applicant_id: INT &lt;FK&gt;</text><text fill="#000000" font-family="sans-serif" font-size="11" lengthAdjust="spacingAndGlyphs" textLength="88" x="34.5" y="725.9863">name: VARCHAR</text><text fill="#000000" font-family="sans-serif" font-size="11" lengthAdjust="spacingAndGlyphs" textLength="79" x="34.5" y="738.877">sequence: INT</text><path d="M29.5,745.5625 L29.5,745.8427 L39.7143,745.0101 L49.9286,745.8202 L60.1429,746.0954 L70.3571,744.6113 L80.5714,745.4589 L90.7857,744.9938 L101,745.0512 L111.2143,745.4716 L121.4286,744.6407 L131.6429,746.3007 L141.8571,744.7221 L152.0714,745.2988 L162.2857,746.1384 L172.5,745.5625 " fill="#FEFECE" style="stroke: #A80036; stroke-width: 1.5;"/><!--class Event--><polygon fill="#FEFECE" filter="url(#fkalmteu2o0re)" points="300,456,300,456.2102,309.8462,455.5857,319.6923,456.1933,329.5385,456.3997,339.3846,455.2866,349.2308,455.9223,359.0769,455.5735,368.9231,455.6165,378.7692,455.9318,388.6154,455.3086,398.4615,456.5536,408.3077,455.3697,418.1538,455.8022,428,456.4319,437.8462,455.9142,447.6923,456.0682,457.5385,455.9681,467.3846,456.1785,477.2308,456.2391,487.0769,456.5857,496.9231,456.6711,506.7692,456.6793,516.6154,456.2546,526.4615,456.4636,536.3077,456.7022,546.1538,455.2788,556,456,556.6785,456,555.7035,465.8739,556.5338,475.7478,555.505,485.6217,555.9315,495.4955,556.7416,505.3694,555.9513,515.2433,556.1053,525.1172,556.3386,534.9911,556.4162,544.865,555.9961,554.7388,556.2872,564.6127,555.4276,574.4866,556.2844,584.3605,556,594.2344,556,594.7826,546.1538,594.6789,536.3077,594.8474,526.4615,593.7513,516.6154,593.5822,506.7692,593.613,496.9231,594.1755,487.0769,594.0378,477.2308,594.9158,467.3846,594.0597,457.5385,593.8913,447.6923,594.4626,437.8462,593.5675,428,593.7152,418.1538,594.8833,408.3077,594.67,398.4615,594.9689,388.6154,593.9126,378.7692,594.5536,368.9231,594.8248,359.0769,593.762,349.2308,594.1385,339.3846,594.3604,329.5385,594.8861,319.6923,594.2302,309.8462,594.6969,300,594.2344,299.4462,594.2344,299.3227,584.3605,300.5036,574.4866,299.2831,564.6127,300.509,554.7388,300.2066,544.865,299.7321,534.9911,299.6462,525.1172,300.4588,515.2433,299.7007,505.3694,300.5919,495.4955,299.4473,485.6217,300.6174,475.7478,300.4843,465.8739,300,456" style="stroke: #A80036; stroke-width: 1.5;"/><polygon fill="#AAAAEE" points="419.3108,474.6756,417.6984,476.8788,415.7912,480.1057,413.0636,482.2804,410.1974,483.4696,407.912,483.5728,404.9747,482.0855,402.2032,481.1139,400.0995,479.1412,398.9961,476.8828,398.3417,475.0845,397.7006,472.7357,396.66,470.7145,397.4596,468.741,398.1602,466.5792,400.7893,464.8695,402.639,462.6511,404.9284,461.9144,407.6501,461.2801,411.1404,461.657,413.0521,462.5585,415.2747,462.9672,417.9772,465.736,418.9193,468.659,419.3286,470.6534,418.865,473.9399" style="stroke: #A80036; stroke-width: 1.0;"/><path d="M406.5781,478.75 L409.0938,478.75 L409.0938,468.8594 L412.4219,468.8594 L412.4219,466.75 L403.2656,466.75 L403.2656,468.8594 L406.5781,468.8594 L406.5781,478.75 Z "/><text fill="#000000" font-family="sans-serif" font-size="12" lengthAdjust="spacingAndGlyphs" textLength="31" x="428.75" y="476.1016">Event</text><path d="M301,488 L301,488.2802 L311.16,487.4476 L321.32,488.2577 L331.48,488.5329 L341.64,487.0488 L351.8,487.8964 L361.96,487.4313 L372.12,487.4887 L382.28,487.9091 L392.44,487.0782 L402.6,488.7382 L412.76,487.1596 L422.92,487.7363 L433.08,488.5759 L443.24,487.8856 L453.4,488.091 L463.56,487.9574 L473.72,488.238 L483.88,488.3188 L494.04,488.7809 L504.2,488.8947 L514.36,488.9057 L524.52,488.3395 L534.68,488.6181 L544.84,488.9363 L555,488 " fill="#FEFECE" style="stroke: #A80036; stroke-width: 1.5;"/><text fill="#000000" font-family="sans-serif" font-size="11" lengthAdjust="spacingAndGlyphs" textLength="92" x="306" y="502.2051">id: INT &lt;PK&gt; &lt;FK&gt;</text><text fill="#000000" font-family="sans-serif" font-size="11" lengthAdjust="spacingAndGlyphs" textLength="148" x="306" y="515.0957">event_category_id: INT &lt;FK&gt;</text><text fill="#000000" font-family="sans-serif" font-size="11" lengthAdjust="spacingAndGlyphs" textLength="81" x="306" y="527.9863">startdate: DATE</text><text fill="#000000" font-family="sans-serif" font-size="11" lengthAdjust="spacingAndGlyphs" textLength="79" x="306" y="540.877">enddate: DATE</text><text fill="#000000" font-family="sans-serif" font-size="11" lengthAdjust="spacingAndGlyphs" textLength="75" x="306" y="553.7676">title: VARCHAR</text><text fill="#000000" font-family="sans-serif" font-size="11" lengthAdjust="spacingAndGlyphs" textLength="117" x="306" y="566.6582">description: VARCHAR</text><path d="M301,573.3438 L301,573.624 L311.16,572.7913 L321.32,573.6015 L331.48,573.8767 L341.64,572.3926 L351.8,573.2401 L361.96,572.7751 L372.12,572.8324 L382.28,573.2529 L392.44,572.4219 L402.6,574.0819 L412.76,572.5034 L422.92,573.0801 L433.08,573.9197 L443.24,573.2294 L453.4,573.4347 L463.56,573.3012 L473.72,573.5818 L483.88,573.6626 L494.04,574.1247 L504.2,574.2385 L514.36,574.2494 L524.52,573.6833 L534.68,573.9619 L544.84,574.2801 L555,573.3438 " fill="#FEFECE" style="stroke: #A80036; stroke-width: 1.5;"/><text fill="#000000" font-family="sans-serif" font-size="11" lengthAdjust="spacingAndGlyphs" textLength="244" x="306" y="587.5488">dateresolution: ENUM('YEAR', 'MONTH', 'DAY')</text><!--class EventCategory--><polygon fill="#FEFECE" filter="url(#fkalmteu2o0re)" points="209,654,209,654.2102,218.9545,653.5857,228.9091,654.1933,238.8636,654.3997,248.8182,653.2866,258.7727,653.9223,268.7273,653.5735,278.6818,653.6165,288.6364,653.9318,298.5909,653.3086,308.5455,654.5536,318.5,653.3697,328.4545,653.8022,338.4091,654.4319,348.3636,653.9142,358.3182,654.0682,368.2727,653.9681,378.2273,654.1785,388.1818,654.2391,398.1364,654.5857,408.0909,654.6711,418.0455,654.6793,428,654.2546,437.9545,654.4636,447.9091,654.7022,457.8636,653.2788,467.8182,654.6785,477.7727,653.7035,487.7273,654.5338,497.6818,653.505,507.6364,653.9315,517.5909,654.7416,527.5455,653.9513,537.5,654.1053,547.4545,654.3386,557.4091,654.4162,567.3636,653.9961,577.3182,654.2872,587.2727,653.4276,597.2273,654.2844,607.1818,654.5482,617.1364,654.4445,627.0909,654.613,637.0455,653.5169,647,654,646.3478,654,646.3786,663.9563,646.9411,673.9125,646.8035,683.8688,647.6814,693.825,646.8253,703.7813,646.6569,713.7375,647.2283,723.6938,646.3332,733.65,646.4809,743.6063,647,753.5625,647,754.2115,637.0455,753.9982,627.0909,754.297,617.1364,753.2407,607.1818,753.8817,597.2273,754.1529,587.2727,753.0901,577.3182,753.4666,567.3636,753.6885,557.4091,754.2143,547.4545,753.5583,537.5,754.0251,527.5455,753.0087,517.5909,752.8852,507.6364,754.0661,497.6818,752.8456,487.7273,754.0715,477.7727,753.7691,467.8182,753.2946,457.8636,753.2087,447.9091,754.0213,437.9545,753.2632,428,754.1544,418.0455,753.0098,408.0909,754.1799,398.1364,754.0468,388.1818,753.8075,378.2273,753.6097,368.2727,754.2891,358.3182,754.1761,348.3636,753.7318,338.4091,753.8307,328.4545,753.4322,318.5,754.279,308.5455,753.7174,298.5909,753.7351,288.6364,752.9541,278.6818,753.1573,268.7273,754.0932,258.7727,753.9923,248.8182,753.5196,238.8636,753.2403,228.9091,753.3436,218.9545,752.8763,209,753.5625,209.4147,753.5625,209.7396,743.6063,209.5264,733.65,209.6949,723.6938,208.8633,713.7375,209.0872,703.7813,208.6124,693.825,209.284,683.8688,209.2468,673.9125,209.5524,663.9563,209,654" style="stroke: #A80036; stroke-width: 1.5;"/><polygon fill="#AAAAEE" points="393.8108,672.6756,392.1984,674.8788,390.2912,678.1057,387.5636,680.2804,384.6974,681.4696,382.412,681.5728,379.4747,680.0855,376.7032,679.1139,374.5995,677.1412,373.4961,674.8828,372.8417,673.0845,372.2006,670.7357,371.16,668.7145,371.9596,666.741,372.6602,664.5792,375.2893,662.8695,377.139,660.6511,379.4284,659.9144,382.1501,659.2801,385.6404,659.657,387.5521,660.5585,389.7747,660.9672,392.4772,663.736,393.4193,666.659,393.8286,668.6534,393.365,671.9399" style="stroke: #A80036; stroke-width: 1.0;"/><path d="M381.0781,676.75 L383.5938,676.75 L383.5938,666.8594 L386.9219,666.8594 L386.9219,664.75 L377.7656,664.75 L377.7656,666.8594 L381.0781,666.8594 L381.0781,676.75 Z "/><text fill="#000000" font-family="sans-serif" font-size="12" lengthAdjust="spacingAndGlyphs" textLength="82" x="403.25" y="674.1016">EventCategory</text><path d="M210,686 L210,686.2802 L219.9091,685.4476 L229.8182,686.2577 L239.7273,686.5329 L249.6364,685.0488 L259.5455,685.8964 L269.4545,685.4313 L279.3636,685.4887 L289.2727,685.9091 L299.1818,685.0782 L309.0909,686.7382 L319,685.1596 L328.9091,685.7363 L338.8182,686.5759 L348.7273,685.8856 L358.6364,686.091 L368.5455,685.9574 L378.4545,686.238 L388.3636,686.3188 L398.2727,686.7809 L408.1818,686.8947 L418.0909,686.9057 L428,686.3395 L437.9091,686.6181 L447.8182,686.9363 L457.7273,685.0384 L467.6364,686.9047 L477.5455,685.6047 L487.4545,686.7117 L497.3636,685.34 L507.2727,685.9087 L517.1818,686.9888 L527.0909,685.935 L537,686.1404 L546.9091,686.4515 L556.8182,686.555 L566.7273,685.9948 L576.6364,686.383 L586.5455,685.2368 L596.4545,686.3792 L606.3636,686.7309 L616.2727,686.5927 L626.1818,686.8174 L636.0909,685.3559 L646,686 " fill="#FEFECE" style="stroke: #A80036; stroke-width: 1.5;"/><text fill="#000000" font-family="sans-serif" font-size="11" lengthAdjust="spacingAndGlyphs" textLength="92" x="215" y="700.2051">id: INT &lt;PK&gt; &lt;FK&gt;</text><text fill="#000000" font-family="sans-serif" font-size="11" lengthAdjust="spacingAndGlyphs" textLength="118" x="215" y="713.0957">applicant_id: INT &lt;FK&gt;</text><text fill="#000000" font-family="sans-serif" font-size="11" lengthAdjust="spacingAndGlyphs" textLength="79" x="215" y="725.9863">sequence: INT</text><path d="M210,732.6719 L210,732.9521 L219.9091,732.1194 L229.8182,732.9296 L239.7273,733.2048 L249.6364,731.7207 L259.5455,732.5683 L269.4545,732.1032 L279.3636,732.1605 L289.2727,732.581 L299.1818,731.75 L309.0909,733.4101 L319,731.8315 L328.9091,732.4082 L338.8182,733.2478 L348.7273,732.5575 L358.6364,732.7629 L368.5455,732.6293 L378.4545,732.9099 L388.3636,732.9907 L398.2727,733.4528 L408.1818,733.5666 L418.0909,733.5776 L428,733.0114 L437.9091,733.29 L447.8182,733.6082 L457.7273,731.7103 L467.6364,733.5766 L477.5455,732.2765 L487.4545,733.3836 L497.3636,732.0118 L507.2727,732.5805 L517.1818,733.6607 L527.0909,732.6069 L537,732.8123 L546.9091,733.1234 L556.8182,733.2269 L566.7273,732.6667 L576.6364,733.0548 L586.5455,731.9087 L596.4545,733.0511 L606.3636,733.4028 L616.2727,733.2646 L626.1818,733.4892 L636.0909,732.0278 L646,732.6719 " fill="#FEFECE" style="stroke: #A80036; stroke-width: 1.5;"/><text fill="#000000" font-family="sans-serif" font-size="11" lengthAdjust="spacingAndGlyphs" textLength="426" x="215" y="746.877">name: ENUM('EMPLOYMENT', 'PROFESSIONALDEV', 'EDUCATION', 'SCHOOLING')</text><!--class Hobby--><polygon fill="#FEFECE" filter="url(#fkalmteu2o0re)" points="628,481.5,628,481.7102,638.25,481.0857,648.5,481.6933,658.75,481.8997,669,480.7866,679.25,481.4223,689.5,481.0735,699.75,481.1165,710,481.4318,720.25,480.8086,730.5,482.0536,740.75,480.8697,751,481.3022,761.25,481.9319,771.5,481.4142,781.75,481.5682,792,481.5,791.9681,481.5,792.1785,491.1302,792.2391,500.7604,792.5857,510.3906,792.6711,520.0208,792.6793,529.651,792.2546,539.2813,792.4636,548.9115,792.7022,558.5417,792,568.1719,792,567.4507,781.75,568.8504,771.5,567.8754,761.25,568.7057,751,567.6769,740.75,568.1034,730.5,568.9135,720.25,568.1231,710,568.2772,699.75,568.5105,689.5,568.5881,679.25,568.168,669,568.4591,658.75,567.5995,648.5,568.4563,638.25,568.7201,628,568.1719,628.4445,568.1719,628.613,558.5417,627.5169,548.9115,627.3478,539.2813,627.3786,529.651,627.9411,520.0208,627.8035,510.3906,628.6814,500.7604,627.8253,491.1302,628,481.5" style="stroke: #A80036; stroke-width: 1.5;"/><polygon fill="#AAAAEE" points="698.3108,500.1756,696.6984,502.3788,694.7912,505.6057,692.0636,507.7804,689.1974,508.9696,686.912,509.0728,683.9747,507.5855,681.2032,506.6139,679.0995,504.6412,677.9961,502.3828,677.3417,500.5845,676.7006,498.2357,675.66,496.2145,676.4596,494.241,677.1602,492.0792,679.7893,490.3695,681.639,488.1511,683.9284,487.4144,686.6501,486.7801,690.1404,487.157,692.0521,488.0585,694.2747,488.4672,696.9772,491.236,697.9193,494.159,698.3286,496.1534,697.865,499.4399" style="stroke: #A80036; stroke-width: 1.0;"/><path d="M685.5781,504.25 L688.0938,504.25 L688.0938,494.3594 L691.4219,494.3594 L691.4219,492.25 L682.2656,492.25 L682.2656,494.3594 L685.5781,494.3594 L685.5781,504.25 Z "/><text fill="#000000" font-family="sans-serif" font-size="12" lengthAdjust="spacingAndGlyphs" textLength="37" x="707.75" y="501.6016">Hobby</text><path d="M629,513.5 L629,513.7802 L639.125,512.9476 L649.25,513.7577 L659.375,514.0329 L669.5,512.5488 L679.625,513.3964 L689.75,512.9313 L699.875,512.9887 L710,513.4091 L720.125,512.5782 L730.25,514.2382 L740.375,512.6596 L750.5,513.2363 L760.625,514.0759 L770.75,513.3856 L780.875,513.591 L791,513.5 " fill="#FEFECE" style="stroke: #A80036; stroke-width: 1.5;"/><text fill="#000000" font-family="sans-serif" font-size="11" lengthAdjust="spacingAndGlyphs" textLength="64" x="634" y="527.7051">id: INT &lt;PK&gt;</text><text fill="#000000" font-family="sans-serif" font-size="11" lengthAdjust="spacingAndGlyphs" textLength="152" x="634" y="540.5957">hobby_category_id: INT &lt;FK&gt;</text><text fill="#000000" font-family="sans-serif" font-size="11" lengthAdjust="spacingAndGlyphs" textLength="88" x="634" y="553.4863">name: VARCHAR</text><path d="M629,560.1719 L629,560.4521 L639.125,559.6194 L649.25,560.4296 L659.375,560.7048 L669.5,559.2207 L679.625,560.0683 L689.75,559.6032 L699.875,559.6605 L710,560.081 L720.125,559.25 L730.25,560.9101 L740.375,559.3315 L750.5,559.9082 L760.625,560.7478 L770.75,560.0575 L780.875,560.2629 L791,560.1719 " fill="#FEFECE" style="stroke: #A80036; stroke-width: 1.5;"/><!--class HobbyCategory--><polygon fill="#FEFECE" filter="url(#fkalmteu2o0re)" points="682,660.5,682,660.7102,692,660.0857,702,660.6933,712,660.8997,722,659.7866,732,660.4223,742,660.0735,752,660.1165,762,660.4318,772,659.8086,782,661.0536,792,659.8697,802,660.3022,812,660.5,812.4319,660.5,811.9142,670.1302,812.0682,679.7604,811.9681,689.3906,812.1785,699.0208,812.2391,708.651,812.5857,718.2813,812.6711,727.9115,812.6793,737.5417,812,747.1719,812,747.4265,802,747.6355,792,747.8741,782,746.4507,772,747.8504,762,746.8754,752,747.7057,742,746.6769,732,747.1034,722,747.9135,712,747.1231,702,747.2772,692,747.5105,682,747.1719,682.4162,747.1719,681.9961,737.5417,682.2872,727.9115,681.4276,718.2813,682.2844,708.651,682.5482,699.0208,682.4445,689.3906,682.613,679.7604,681.5169,670.1302,682,660.5" style="stroke: #A80036; stroke-width: 1.5;"/><polygon fill="#AAAAEE" points="712.5608,679.1756,710.9484,681.3788,709.0412,684.6057,706.3136,686.7804,703.4474,687.9696,701.162,688.0728,698.2247,686.5855,695.4532,685.6139,693.3495,683.6412,692.2461,681.3828,691.5917,679.5845,690.9506,677.2357,689.91,675.2145,690.7096,673.241,691.4102,671.0792,694.0393,669.3695,695.889,667.1511,698.1784,666.4144,700.9001,665.7801,704.3904,666.157,706.3021,667.0585,708.5247,667.4672,711.2272,670.236,712.1693,673.159,712.5786,675.1534,712.115,678.4399" style="stroke: #A80036; stroke-width: 1.0;"/><path d="M699.8281,683.25 L702.3438,683.25 L702.3438,673.3594 L705.6719,673.3594 L705.6719,671.25 L696.5156,671.25 L696.5156,673.3594 L699.8281,673.3594 L699.8281,683.25 Z "/><text fill="#000000" font-family="sans-serif" font-size="12" lengthAdjust="spacingAndGlyphs" textLength="88" x="716.5" y="680.6016">HobbyCategory</text><path d="M683,692.5 L683,692.7802 L692.8462,691.9476 L702.6923,692.7577 L712.5385,693.0329 L722.3846,691.5488 L732.2308,692.3964 L742.0769,691.9313 L751.9231,691.9887 L761.7692,692.4091 L771.6154,691.5782 L781.4615,693.2382 L791.3077,691.6596 L801.1538,692.2363 L811,692.5 " fill="#FEFECE" style="stroke: #A80036; stroke-width: 1.5;"/><text fill="#000000" font-family="sans-serif" font-size="11" lengthAdjust="spacingAndGlyphs" textLength="92" x="688" y="706.7051">id: INT &lt;PK&gt; &lt;FK&gt;</text><text fill="#000000" font-family="sans-serif" font-size="11" lengthAdjust="spacingAndGlyphs" textLength="118" x="688" y="719.5957">applicant_id: INT &lt;FK&gt;</text><text fill="#000000" font-family="sans-serif" font-size="11" lengthAdjust="spacingAndGlyphs" textLength="88" x="688" y="732.4863">name: VARCHAR</text><path d="M683,739.1719 L683,739.4521 L692.8462,738.6194 L702.6923,739.4296 L712.5385,739.7048 L722.3846,738.2207 L732.2308,739.0683 L742.0769,738.6032 L751.9231,738.6605 L761.7692,739.081 L771.6154,738.25 L781.4615,739.9101 L791.3077,738.3315 L801.1538,738.9082 L811,739.1719 " fill="#FEFECE" style="stroke: #A80036; stroke-width: 1.5;"/><!--class Photo--><polygon fill="#FEFECE" filter="url(#fkalmteu2o0re)" points="827,469,827,469.2102,837,468.5857,847,469.1933,857,469.3997,867,468.2866,877,468.9223,887,468.5735,897,468.6165,907,468.9318,917,468.3086,927,469.5536,937,468.3697,947,468.8022,957,469,957.4319,469,956.9142,479.223,957.0682,489.446,956.9681,499.669,957.1785,509.892,957.2391,520.1151,957.5857,530.3381,957.6711,540.5611,957.6793,550.7841,957.2546,561.0071,957.4636,571.2301,957,581.4531,957,582.1554,947,580.7319,937,582.1316,927,581.1566,917,581.9869,907,580.9581,897,581.3846,887,582.1947,877,581.4044,867,581.5584,857,581.7918,847,581.8694,837,581.4492,827,581.4531,827.2872,581.4531,826.4276,571.2301,827.2844,561.0071,827.5482,550.7841,827.4445,540.5611,827.613,530.3381,826.5169,520.1151,826.3478,509.892,826.3786,499.669,826.9411,489.446,826.8035,479.223,827,469" style="stroke: #A80036; stroke-width: 1.5;"/><polygon fill="#AAAAEE" points="881.4108,487.6756,879.7984,489.8788,877.8912,493.1057,875.1636,495.2804,872.2974,496.4696,870.012,496.5728,867.0747,495.0855,864.3032,494.1139,862.1995,492.1412,861.0961,489.8828,860.4417,488.0845,859.8006,485.7357,858.76,483.7145,859.5596,481.741,860.2602,479.5792,862.8893,477.8695,864.739,475.6511,867.0284,474.9144,869.7501,474.2801,873.2404,474.657,875.1521,475.5585,877.3747,475.9672,880.0772,478.736,881.0193,481.659,881.4286,483.6534,880.965,486.9399" style="stroke: #A80036; stroke-width: 1.0;"/><path d="M868.6781,491.75 L871.1938,491.75 L871.1938,481.8594 L874.5219,481.8594 L874.5219,479.75 L865.3656,479.75 L865.3656,481.8594 L868.6781,481.8594 L868.6781,491.75 Z "/><text fill="#000000" font-family="sans-serif" font-size="12" lengthAdjust="spacingAndGlyphs" textLength="35" x="890.65" y="489.1016">Photo</text><path d="M828,501 L828,501.2802 L837.8462,500.4476 L847.6923,501.2577 L857.5385,501.5329 L867.3846,500.0488 L877.2308,500.8964 L887.0769,500.4313 L896.9231,500.4887 L906.7692,500.9091 L916.6154,500.0782 L926.4615,501.7382 L936.3077,500.1596 L946.1538,500.7363 L956,501 " fill="#FEFECE" style="stroke: #A80036; stroke-width: 1.5;"/><text fill="#000000" font-family="sans-serif" font-size="11" lengthAdjust="spacingAndGlyphs" textLength="64" x="833" y="515.2051">id: INT &lt;PK&gt;</text><text fill="#000000" font-family="sans-serif" font-size="11" lengthAdjust="spacingAndGlyphs" textLength="118" x="833" y="528.0957">applicant_id: INT &lt;FK&gt;</text><text fill="#000000" font-family="sans-serif" font-size="11" lengthAdjust="spacingAndGlyphs" textLength="58" x="833" y="540.9863">data: BLOB</text><text fill="#000000" font-family="sans-serif" font-size="11" lengthAdjust="spacingAndGlyphs" textLength="117" x="833" y="553.877">mediaType: VARCHAR</text><text fill="#000000" font-family="sans-serif" font-size="11" lengthAdjust="spacingAndGlyphs" textLength="105" x="833" y="566.7676">filename: VARCHAR</text><path d="M828,573.4531 L828,573.7334 L837.8462,572.9007 L847.6923,573.7108 L857.5385,573.986 L867.3846,572.5019 L877.2308,573.3495 L887.0769,572.8845 L896.9231,572.9418 L906.7692,573.3622 L916.6154,572.5313 L926.4615,574.1913 L936.3077,572.6128 L946.1538,573.1894 L956,573.4531 " fill="#FEFECE" style="stroke: #A80036; stroke-width: 1.5;"/><!--link Account to Applicant--><path d="M550,120.2355 L550.2802,120.2355 L549.4476,130.1528 L550.2577,140.0702 L550.5329,149.9875 L549.0488,159.9048 L549.8964,169.8222 L550,179.7395 " fill="none" style="stroke: #A80036; stroke-width: 1.0;"/><text fill="#000000" font-family="sans-serif" font-size="13" lengthAdjust="spacingAndGlyphs" textLength="8" x="541.4875" y="140.4481">1</text><text fill="#000000" font-family="sans-serif" font-size="13" lengthAdjust="spacingAndGlyphs" textLength="8" x="541.7188" y="168.6837">1</text><!--link Applicant to Knowledge--><path d="M477.8604,326.0782 L477.9912,326.326 L468.7955,330.2384 L460.3666,335.6035 L451.688,340.4956 L442.1882,343.8318 L433.7768,349.2301 L424.7526,353.4676 L415.9724,358.167 L407.3616,363.1875 L398.1666,367.1014 L390.1345,373.2181 L380.5906,376.4708 L372.0527,381.6295 L363.6376,387.0208 L354.5083,391.059 L345.7971,395.8893 L336.9277,400.4199 L328.2517,405.3168 L319.4823,410.0369 L310.891,415.0943 L302.1371,419.8437 L293.3351,424.502 L284.2638,428.65 L275.5868,433.5452 L266.9283,438.4753 L257.2353,441.4455 L249.2994,447.7447 L239.8855,451.2437 L231.5952,456.8715 L222.1478,460.3071 L213.6063,465.4587 L205.3034,471.0627 L196.0348,474.8369 " fill="none" style="stroke: #A80036; stroke-width: 1.0;"/><text fill="#000000" font-family="sans-serif" font-size="13" lengthAdjust="spacingAndGlyphs" textLength="8" x="462.0085" y="326.326">1</text><text fill="#000000" font-family="sans-serif" font-size="13" lengthAdjust="spacingAndGlyphs" textLength="21" x="186.9225" y="463.8358">0..n</text><!--link Applicant to Event--><path d="M494.3552,396.0969 L494.6044,396.2252 L489.479,404.3624 L485.8144,413.2516 L481.6741,421.8959 L475.9695,429.735 L472.3381,438.6413 L467.5397,446.9469 L463.6603,455.7255 " fill="none" style="stroke: #A80036; stroke-width: 1.0;"/><text fill="#000000" font-family="sans-serif" font-size="13" lengthAdjust="spacingAndGlyphs" textLength="8" x="482.5342" y="415.5839">1</text><text fill="#000000" font-family="sans-serif" font-size="13" lengthAdjust="spacingAndGlyphs" textLength="21" x="445.255" y="444.8687">0..n</text><!--link Applicant to Hobby--><path d="M622.043,394.7136 L622.2753,394.8704 L627.4375,403.0734 L633.9614,412.1955 L640.0418,421.0184 L644.6642,428.8568 L651.2191,437.9999 L656.686,446.4086 L662.5859,455.1095 L668.7868,464.0136 L673.9505,472.2175 L680.5669,481.4022 " fill="none" style="stroke: #A80036; stroke-width: 1.0;"/><text fill="#000000" font-family="sans-serif" font-size="13" lengthAdjust="spacingAndGlyphs" textLength="8" x="629.8849" y="402.0394">1</text><text fill="#000000" font-family="sans-serif" font-size="13" lengthAdjust="spacingAndGlyphs" textLength="21" x="653.2026" y="470.3639">0..n</text><!--link Applicant to Photo--><path d="M622.2497,331.2854 L622.2988,331.3648 L626.312,333.7016 L630.6133,336.504 L634.8207,339.1548 L638.7196,341.3069 L643.0456,344.1494 L643.0273,344.1201 L647.4072,346.7899 L651.8798,349.6071 L656.4167,352.5268 L660.7319,355.0933 L665.3576,358.1546 L665.49,358.362 L669.8973,360.9115 L674.6911,364.0665 L679.532,367.2955 L684.0986,370.0946 L688.8095,373.1197 L688.8261,373.1452 L693.6449,376.2566 L698.539,379.4838 L703.3968,382.6552 L708.3239,385.9331 L713.0251,388.8636 L713.1901,389.112 L718.1127,392.3833 L722.9289,395.4943 L727.9009,398.84 L732.8802,402.1966 L737.6281,405.2048 L737.4478,404.9399 L742.7207,408.8056 L747.3997,411.7988 L752.5302,415.4553 L757.1958,418.4288 L762.2425,421.9622 L762.225,421.9372 L767.2815,425.6305 L771.9298,428.7413 L776.8189,432.1958 L781.7283,435.6791 L786.4918,438.9543 L786.6004,439.1041 L791.1924,442.362 L795.97,445.8759 L800.4474,448.9758 L805.3726,452.6932 L810,456 L810.1467,456.1945 L811.7929,457.4202 L813.5119,458.7424 L814.8924,459.6159 L816.5211,460.8184 L818.3695,462.3122 L818.1996,462.0946 L820.0389,463.6076 L821.6868,464.8753 L823.6124,466.4988 L825.0637,467.5149 L826.797,468.892 " fill="none" style="stroke: #A80036; stroke-width: 1.0;"/><text fill="#000000" font-family="sans-serif" font-size="13" lengthAdjust="spacingAndGlyphs" textLength="8" x="630.113" y="332.0702">1</text><text fill="#000000" font-family="sans-serif" font-size="13" lengthAdjust="spacingAndGlyphs" textLength="21" x="797.9901" y="459.3817">0..n</text><!--link Knowledge to KnowledgeCategory--><path d="M89.4035,575.3378 L89.4968,575.342 L89.0464,579.158 L89.1431,582.9988 L89.0616,586.8315 L88.3942,590.6377 L88.5379,594.4805 L88.5033,594.48 L88.2908,598.4892 L88.2523,602.5008 L88.3349,606.5142 L88.0003,610.5216 L88.25,614.5374 L88.496,614.5409 L88.0279,618.5444 L88.2781,622.5582 L88.616,626.5732 L88.4439,630.581 L88.54,634.5925 L88.5703,634.5939 L88.6994,638.4194 L88.9664,642.2512 L89.1668,646.0799 L89.4943,649.9145 L89.4078,653.7302 " fill="none" style="stroke: #A80036; stroke-width: 1.0;"/><text fill="#000000" font-family="sans-serif" font-size="13" lengthAdjust="spacingAndGlyphs" textLength="8" x="79.5027" y="594.4883">1</text><text fill="#000000" font-family="sans-serif" font-size="13" lengthAdjust="spacingAndGlyphs" textLength="8" x="79.2151" y="642.7141">1</text><!--link KnowledgeCategory to Knowledge--><path d="M113.2741,653.7302 L113.3674,653.7347 L113.2739,649.8938 L113.7274,646.0793 L114.0028,642.2561 L113.6925,638.4049 L114.1929,634.5925 L114.1584,634.5917 L114.0494,632.5941 L114.1145,630.6006 L114.3007,628.6098 L114.0697,626.6093 L114.4229,624.6224 L114.669,624.6243 L114.1582,622.6033 L114.3659,620.5877 L114.6611,618.5729 L114.4465,616.5541 L114.5,614.5374 L114.5303,614.5376 L114.4706,612.5202 L114.549,610.5038 L114.5607,608.4869 L114.6996,606.471 L114.4241,604.4519 L114.7223,604.4588 L114.6801,602.4646 L114.4457,600.466 L114.4928,598.4738 L114.553,596.482 L114.1952,594.4805 L113.8751,594.4652 L114.3131,590.6664 L113.697,586.8171 L113.8823,583.0062 L113.2422,579.1558 L113.2787,575.3378 " fill="none" style="stroke: #A80036; stroke-width: 1.0;"/><text fill="#000000" font-family="sans-serif" font-size="13" lengthAdjust="spacingAndGlyphs" textLength="8" x="106.4376" y="642.7141">1</text><text fill="#000000" font-family="sans-serif" font-size="13" lengthAdjust="spacingAndGlyphs" textLength="21" x="92.4955" y="594.4883">0..n</text><!--link Event to EventCategory--><path d="M415.5459,594.2061 L415.6393,594.2078 L415.3064,597.2233 L415.5211,600.2489 L415.5574,603.2712 L415.0074,606.2827 L415.2691,609.3091 L415.2345,609.309 L415.09,612.3559 L415.1197,615.4035 L415.2703,618.4514 L415.0039,621.4979 L415.3217,624.5464 L415.5676,624.5527 L415.118,627.5347 L415.3866,630.535 L415.7428,633.5376 L415.5892,636.5272 L415.7037,639.5236 L415.734,639.5251 L415.8318,642.3875 L416.0675,645.2567 L416.2367,648.1226 L416.5328,650.9948 L416.4151,653.8465 " fill="none" style="stroke: #A80036; stroke-width: 1.0;"/><text fill="#000000" font-family="sans-serif" font-size="13" lengthAdjust="spacingAndGlyphs" textLength="8" x="405.8491" y="614.177">1</text><text fill="#000000" font-family="sans-serif" font-size="13" lengthAdjust="spacingAndGlyphs" textLength="8" x="406.2235" y="642.8468">1</text><!--link EventCategory to Event--><path d="M440.2664,653.8465 L440.3597,653.8514 L440.2332,650.9722 L440.6535,648.1218 L440.8957,645.2621 L440.5524,642.3715 L441.0197,639.5236 L440.9851,639.5227 L440.9111,636.523 L441.0111,633.5281 L441.2321,630.5365 L441.0361,627.5335 L441.4241,624.5464 L441.6702,624.5473 L441.1551,621.4979 L441.3585,618.4512 L441.6495,615.4047 L441.4305,612.3565 L441.4798,609.3091 L441.5101,609.3097 L441.407,606.2883 L441.4419,603.2695 L441.4102,600.2494 L441.5056,597.2318 L441.1867,594.2061 " fill="none" style="stroke: #A80036; stroke-width: 1.0;"/><text fill="#000000" font-family="sans-serif" font-size="13" lengthAdjust="spacingAndGlyphs" textLength="8" x="433.4289" y="642.8468">1</text><text fill="#000000" font-family="sans-serif" font-size="13" lengthAdjust="spacingAndGlyphs" textLength="21" x="420.4638" y="614.177">0..n</text><!--link Hobby to HobbyCategory--><path d="M707.9123,568.7883 L708.0048,568.8014 L708.0348,570.92 L708.6069,573.1152 L709.0025,575.2855 L708.8175,577.3738 L709.4362,579.5756 L709.4021,579.5701 L709.6177,581.8161 L710.0052,584.09 L710.5122,586.3833 L710.6074,588.6097 L711.2794,590.9298 L711.5215,590.9736 L711.4284,593.2263 L712.0422,595.6069 L712.7422,598.0031 L712.9405,600.3084 L713.4026,602.6616 L713.4324,602.6675 L713.8615,605.0428 L714.4261,607.4449 L714.9254,609.8342 L715.5493,612.2481 L715.7669,614.5814 L716.0584,614.6442 L716.5752,617.0287 L716.9039,619.3727 L717.5079,621.7759 L718.1248,624.182 L718.3329,626.5 L718.0207,626.4273 L719.1723,628.9139 L719.296,631.1613 L720.2012,633.5905 L720.3015,635.8324 L721.0616,638.2278 L721.032,638.2204 L721.9517,640.5777 L722.1814,642.7617 L722.8183,645.0479 L723.4893,647.3427 L723.9137,649.5756 L724.0922,649.6242 L724.4994,651.7308 L725.2115,653.9205 L725.4302,655.9757 L726.3849,658.2315 L726.8503,660.3539 " fill="none" style="stroke: #A80036; stroke-width: 1.0;"/><text fill="#000000" font-family="sans-serif" font-size="13" lengthAdjust="spacingAndGlyphs" textLength="8" x="699.0562" y="588.1008">1</text><text fill="#000000" font-family="sans-serif" font-size="13" lengthAdjust="spacingAndGlyphs" textLength="8" x="715.0014" y="649.3079">1</text><!--link HobbyCategory to Hobby--><path d="M749.7607,660.3539 L749.8532,660.3666 L749.2827,658.1732 L749.2548,656.0543 L749.0501,653.9111 L748.2645,651.6882 L748.2831,649.5756 L748.249,649.5702 L747.734,647.2762 L747.391,645.0097 L747.1676,642.7622 L746.5322,640.449 L746.4738,638.2278 L746.716,638.2712 L745.7777,635.8329 L745.5465,633.5212 L745.4017,631.225 L744.7548,628.8388 L744.372,626.5 L744.4017,626.5059 L743.887,624.1135 L743.5077,621.7479 L743.0631,619.3694 L742.7432,617.0156 L742.0168,614.5814 L742.3083,614.6443 L741.798,612.2611 L741.0997,609.8373 L740.6766,607.4729 L740.2664,605.1113 L739.4474,602.6616 L739.1353,602.5886 L739.1921,600.3839 L738.2213,597.9389 L738.0317,595.6766 L737.0376,593.2261 L736.7029,590.9298 L736.6734,590.9223 L736.4463,588.74 L735.5298,586.3828 L735.0201,584.1288 L734.5445,581.8835 L733.8226,579.5756 L734.0009,579.6248 L733.2254,577.4177 L732.7547,575.2946 L731.791,573.0355 L731.5627,570.9794 L730.8454,568.7883 " fill="none" style="stroke: #A80036; stroke-width: 1.0;"/><text fill="#000000" font-family="sans-serif" font-size="13" lengthAdjust="spacingAndGlyphs" textLength="8" x="741.5632" y="649.3079">1</text><text fill="#000000" font-family="sans-serif" font-size="13" lengthAdjust="spacingAndGlyphs" textLength="21" x="711.3002" y="588.1008">0..n</text><!--
@startuml
skinparam handwritten true


class Account << (T,aaaaee) >> {
    id: INT <PK>
    username: VARCHAR
    password: VARCHAR
    createdat: TIMESTAMP
    updatedat: TIMESTAMP
}

class Applicant << (T,aaaaee) >> {
    id: INT <PK> <FK>
    account_id: INT <FK>
    firstname: VARCHAR
    lastname: VARCHAR
    street: VARCHAR
    postcode: VARCHAR
    city: VARCHAR
    phone: VARCHAR
    email: VARCHAR
    birthday: DATE
    birthplace: VARCHAR
    drivinglicense: VARCHAR
    updatedat: TIMESTAMP
}

class Knowledge << (T,aaaaee) >> {
    id: INT <PK> <FK>
    knowledge_category_id: INT <FK>
    name: VARCHAR
    sequence: INT
}

class KnowledgeCategory << (T,aaaaee) >> {
    id: INT <PK> <FK>
    applicant_id: INT <FK>
    name: VARCHAR
    sequence: INT
}

class Event << (T,aaaaee) >> {
    id: INT <PK> <FK>
    event_category_id: INT <FK>
    startdate: DATE
    enddate: DATE
    dateresolution: ENUM('YEAR', 'MONTH', 'DAY')
    title: VARCHAR
    description: VARCHAR
}

class EventCategory << (T,aaaaee) >> {
    id: INT <PK> <FK>
    applicant_id: INT <FK>
    name: ENUM('EMPLOYMENT', 'PROFESSIONALDEV', 'EDUCATION', 'SCHOOLING')
    sequence: INT
}

class Hobby << (T,aaaaee) >> {
    id: INT <PK>
    hobby_category_id: INT <FK>
    name: VARCHAR
}

class HobbyCategory << (T,aaaaee) >> {
    id: INT <PK> <FK>
    applicant_id: INT <FK>
    name: VARCHAR
}

class Photo << (T,aaaaee) >> {
    id: INT <PK>
    applicant_id: INT <FK>
    data: BLOB
    mediaType: VARCHAR
    filename: VARCHAR
}

Account "1" - - "1" Applicant

Applicant "1" - - "0..n" Knowledge

Applicant "1" - - "0..n" Event

Applicant "1" - - "0..n" Hobby

Applicant "1" - - "0..n" Photo

Knowledge "1" - - "1" KnowledgeCategory
KnowledgeCategory "1" - - "0..n" Knowledge

Event "1" - - "1" EventCategory
EventCategory "1" - - "0..n" Event

Hobby "1" - - "1" HobbyCategory
HobbyCategory "1" - - "0..n" Hobby

@enduml

PlantUML version 1.2019.03(Sun Mar 10 12:04:44 CET 2019)
(GPL source distribution)
Java Runtime: OpenJDK Runtime Environment
JVM: OpenJDK 64-Bit Server VM
Java Version: 11.0.2+7-suse-lp150.2.12.1-x8664
Operating System: Linux
OS Version: 4.12.14-lp150.12.58-default
Default Encoding: UTF-8
Language: en
Country: US
--></g></svg>